<mxfile host="app.diagrams.net" agent="Mozilla/5.0 (Windows NT 10.0; Win64; x64) AppleWebKit/537.36 (KHTML, like Gecko) Chrome/126.0.0.0 Safari/537.36" version="24.7.4">
  <diagram name="Page-1" id="1RRR1ZwaEd8VN9FJCIdy">
    <mxGraphModel>
      <root>
        <mxCell id="0" />
        <mxCell id="1" parent="0" />
        <mxCell id="2" value="Client" style="shape=umlLifeline;perimeter=lifelinePerimeter;whiteSpace=wrap;container=1;dropTarget=0;collapsible=0;recursiveResize=0;outlineConnect=0;portConstraint=eastwest;newEdgeStyle={&quot;edgeStyle&quot;:&quot;elbowEdgeStyle&quot;,&quot;elbow&quot;:&quot;vertical&quot;,&quot;curved&quot;:0,&quot;rounded&quot;:0};size=65;" vertex="1" parent="1">
          <mxGeometry width="150" height="696" as="geometry" />
        </mxCell>
        <mxCell id="3" value="Server" style="shape=umlLifeline;perimeter=lifelinePerimeter;whiteSpace=wrap;container=1;dropTarget=0;collapsible=0;recursiveResize=0;outlineConnect=0;portConstraint=eastwest;newEdgeStyle={&quot;edgeStyle&quot;:&quot;elbowEdgeStyle&quot;,&quot;elbow&quot;:&quot;vertical&quot;,&quot;curved&quot;:0,&quot;rounded&quot;:0};size=65;" vertex="1" parent="1">
          <mxGeometry x="251" width="150" height="696" as="geometry" />
        </mxCell>
        <mxCell id="4" value="Request Public Key" style="verticalAlign=bottom;edgeStyle=elbowEdgeStyle;elbow=vertical;curved=0;rounded=0;endArrow=block;" edge="1" parent="1" source="2" target="3">
          <mxGeometry relative="1" as="geometry">
            <Array as="points">
              <mxPoint x="209" y="107" />
            </Array>
          </mxGeometry>
        </mxCell>
        <mxCell id="5" value="Send Public Key" style="verticalAlign=bottom;edgeStyle=elbowEdgeStyle;elbow=vertical;curved=0;rounded=0;endArrow=block;" edge="1" parent="1" source="3" target="2">
          <mxGeometry relative="1" as="geometry">
            <Array as="points">
              <mxPoint x="212" y="159" />
            </Array>
          </mxGeometry>
        </mxCell>
        <mxCell id="6" value="Generate Password" style="curved=1;endArrow=block;" edge="1" parent="1" source="2" target="2">
          <mxGeometry relative="1" as="geometry">
            <Array as="points">
              <mxPoint x="126" y="211" />
              <mxPoint x="126" y="241" />
            </Array>
          </mxGeometry>
        </mxCell>
        <mxCell id="7" value="Encrypt Password" style="curved=1;endArrow=block;" edge="1" parent="1" source="2" target="2">
          <mxGeometry relative="1" as="geometry">
            <Array as="points">
              <mxPoint x="126" y="293" />
              <mxPoint x="126" y="323" />
            </Array>
          </mxGeometry>
        </mxCell>
        <mxCell id="8" value="Send Encrypted Password" style="verticalAlign=bottom;edgeStyle=elbowEdgeStyle;elbow=vertical;curved=0;rounded=0;endArrow=block;" edge="1" parent="1" source="2" target="3">
          <mxGeometry relative="1" as="geometry">
            <Array as="points">
              <mxPoint x="209" y="375" />
            </Array>
          </mxGeometry>
        </mxCell>
        <mxCell id="9" value="Decrypt Password" style="curved=1;endArrow=block;" edge="1" parent="1" source="3" target="3">
          <mxGeometry relative="1" as="geometry">
            <Array as="points">
              <mxPoint x="377" y="427" />
              <mxPoint x="377" y="457" />
            </Array>
          </mxGeometry>
        </mxCell>
        <mxCell id="10" value="Perform Login Checks" style="curved=1;endArrow=block;" edge="1" parent="1" source="3" target="3">
          <mxGeometry relative="1" as="geometry">
            <Array as="points">
              <mxPoint x="377" y="509" />
              <mxPoint x="377" y="539" />
            </Array>
          </mxGeometry>
        </mxCell>
        <mxCell id="11" value="Login Response" style="verticalAlign=bottom;edgeStyle=elbowEdgeStyle;elbow=vertical;curved=0;rounded=0;dashed=1;dashPattern=2 3;endArrow=block;" edge="1" parent="1" source="3" target="2">
          <mxGeometry relative="1" as="geometry">
            <Array as="points">
              <mxPoint x="212" y="591" />
            </Array>
          </mxGeometry>
        </mxCell>
      </root>
    </mxGraphModel>
  </diagram>
</mxfile>
